<svg id="svg" version="1.1" xmlns="http://www.w3.org/2000/svg" xmlns:xlink="http://www.w3.org/1999/xlink" width="400" height="400" viewBox="0, 0, 400,400"><g id="svgg"><path id="path0" d="M59.463 1.200 C 31.776 7.243,11.144 26.266,2.544 53.681 L 0.391 60.547 0.391 200.000 L 0.391 339.453 2.544 346.319 C 10.477 371.607,28.393 389.523,53.681 397.456 L 60.547 399.609 200.000 399.609 L 339.453 399.609 346.319 397.456 C 371.607 389.523,389.523 371.607,397.456 346.319 L 399.609 339.453 399.609 200.000 L 399.609 60.547 397.456 53.681 C 389.523 28.393,371.607 10.477,346.319 2.544 L 339.453 0.391 201.953 0.251 C 86.905 0.134,63.638 0.289,59.463 1.200 M337.109 25.176 C 356.720 30.567,370.712 45.029,375.110 64.453 C 375.982 68.302,376.172 92.556,376.172 200.000 C 376.172 341.018,376.349 334.736,372.096 344.904 C 365.761 360.052,352.067 371.370,335.547 375.110 C 331.698 375.982,307.444 376.172,200.000 376.172 C 92.556 376.172,68.302 375.982,64.453 375.110 C 44.475 370.587,29.413 355.525,24.890 335.547 C 23.316 328.599,23.316 71.401,24.890 64.453 C 30.061 41.615,47.706 26.402,71.875 23.944 C 82.867 22.826,332.784 23.987,337.109 25.176 M80.389 190.055 C 78.929 191.030,77.120 193.051,76.368 194.547 C 73.638 199.981,75.363 206.588,80.389 209.945 L 83.044 211.719 200.000 211.719 L 316.956 211.719 319.611 209.945 C 326.665 205.233,326.665 194.767,319.611 190.055 L 316.956 188.281 200.000 188.281 L 83.044 188.281 80.389 190.055 " stroke="none" fill="#000000" fill-rule="evenodd"></path></g></svg>